<svg xmlns="http://www.w3.org/2000/svg" style="display: none;">
  <symbol id="hamburger" viewBox="0 0 100 70">
    <rect width="100" height="10" />
    <rect width="100" height="10" y="30" />
    <rect width="100" height="10" y="60" />
  </symbol>

  <symbol id="close" viewBox="0 0 32 32">
    <line x1="2" y1="2" x2="30" y2="30" stroke="black" />
    <line x1="2" y1="30" x2="30" y2="2" stroke="black" />
  </symbol>

  <symbol id="gear" viewBox="0 0 400 400">
    <!--https://observablehq.com/@jjhembd/gear-icon-generator-->
    <path d="M390.00,200.00
      L387.11,232.99L334.92,249.11L324.34,271.79L345.55,322.13
      L322.13,345.55L271.79,324.34L249.11,334.92L232.99,387.11
      L200.00,390.00L175.07,341.39L150.89,334.92L105.00,364.54
      L77.87,345.55L90.02,292.29L75.66,271.79L21.46,264.98
      L12.89,232.99L56.43,200.00L58.61,175.07L21.46,135.02
      L35.46,105.00L90.02,107.71L107.71,90.02L105.00,35.46
      L135.02,21.46L175.07,58.61L200.00,56.43L232.99,12.89
      L264.98,21.46L271.79,75.66L292.29,90.02L345.55,77.87
      L364.54,105.00L334.92,150.89L341.39,175.07z
      M297.15,200.00A97.15,97.15,0,1,0,297.15,200.31z" />
  </symbol>
</svg>
